<?xml version="1.0" encoding="UTF-8" standalone="no"?>
<svg width="121px" height="56px" viewBox="0 0 121 56" version="1.1" xmlns="http://www.w3.org/2000/svg" xmlns:xlink="http://www.w3.org/1999/xlink">
    <!-- Generator: Sketch 39.1 (31720) - http://www.bohemiancoding.com/sketch -->
    <title>logo 2</title>
    <desc>Created with Sketch.</desc>
    <defs></defs>
    <g id="Page-1" stroke="none" stroke-width="1" fill="none" fill-rule="evenodd">
        <g id="Desktop-HD" transform="translate(-1126.000000, -172.000000)">
            <g id="logo-2" transform="translate(1126.000000, 172.000000)">
                <path d="M64.4209796,35.2285231 C65.622285,35.2285231 66.7649018,34.3353949 67.1257281,33.7394974 L67.1257281,31.8340615 C66.945315,31.7148821 66.1033868,31.3573436 65.0216323,31.3573436 C63.579776,31.3573436 62.5878659,32.1018564 62.5878659,33.3230872 C62.5878659,34.3949846 63.308794,35.2285231 64.4209796,35.2285231 M64.781806,29.5114974 C66.0432491,29.5114974 67.1554347,29.8690359 67.1554347,29.8690359 C67.1851413,27.9930359 66.8250395,27.2485231 65.2918898,27.2485231 C63.9101713,27.2485231 62.5574347,27.6060615 61.9263509,27.7841128 C61.5662491,27.8738564 61.3561293,27.6354974 61.2655605,27.3081128 L61.0250096,26.2060615 C60.9351653,25.8190872 61.145285,25.6108821 61.4155425,25.5211385 C61.6263868,25.4321128 63.3385006,24.8362154 65.5628719,24.8362154 C69.4095126,24.8362154 69.7696144,27.1587795 69.7696144,30.1368308 L69.7696144,36.4791897 C69.7696144,36.7771385 69.4993569,37.0449333 69.1986683,37.0449333 L68.3574647,37.0449333 C68.0872072,37.0449333 67.9669317,36.9257538 67.8466563,36.6278051 L67.5459677,35.8237026 C66.8851772,36.4497538 65.7128539,37.3421641 63.8500335,37.3421641 C61.5959557,37.3421641 59.9729617,35.8237026 59.9729617,33.3525231 C59.9729617,31.1785744 61.7162311,29.5114974 64.781806,29.5114974" id="Fill-15" fill="#646384"></path>
                <path d="M78.9645275,24.8364308 C80.7976413,24.8364308 82.209791,25.5809436 83.3219766,26.9500718 C83.5320964,27.2185846 83.4719587,27.5761231 83.2017012,27.7843282 L82.209791,28.6774564 C81.8489647,29.004841 81.6388449,28.7672 81.398294,28.5582769 C80.857779,27.9630974 79.9861443,27.4267897 78.9949587,27.4267897 C77.0415695,27.4267897 75.5084198,29.0644308 75.5084198,31.0897641 C75.5084198,33.1438154 77.0111383,34.7814564 78.9645275,34.7814564 C80.4969527,34.7814564 81.1280365,34.0075077 81.7591204,33.4123282 C82.0293778,33.1438154 82.2996353,33.1438154 82.5706174,33.3527385 L83.3813898,34.0075077 C83.682803,34.2458667 83.8023539,34.5438154 83.5922341,34.8410462 C82.6307551,36.3602256 81.0077611,37.3423795 78.9340964,37.3423795 C75.5685575,37.3423795 72.6536892,34.6924308 72.6536892,31.1192 C72.6536892,27.605559 75.6286952,24.8364308 78.9645275,24.8364308" id="Fill-17" fill="#646384"></path>
                <path d="M86.5968018,25.7000513 C86.5968018,25.4021026 86.8670593,25.1343077 87.1677479,25.1343077 L88.0089515,25.1343077 C88.2799335,25.1343077 88.4299156,25.2829231 88.5197599,25.4911282 L88.8508796,26.5041538 C89.1211371,26.235641 90.5035802,24.836359 92.8170713,24.836359 C94.5603407,24.836359 95.8225084,25.5212821 96.6941431,26.7417949 C97.0245383,26.4144103 98.7670832,24.836359 101.050868,24.836359 C104.717095,24.836359 106.008969,27.3972821 106.008969,30.4937949 L106.008969,36.4786154 C106.008969,36.7772821 105.769143,37.0450769 105.438748,37.0450769 L103.755616,37.0450769 C103.425221,37.0450769 103.18467,36.7772821 103.18467,36.4786154 L103.18467,30.3753333 C103.18467,28.4986154 102.313035,27.4267179 100.690041,27.4267179 C98.8576521,27.4267179 97.8056042,28.7075385 97.5947599,28.8855897 C97.6548976,29.1541026 97.6853287,29.7198462 97.6853287,30.3157436 L97.6853287,36.4786154 C97.6853287,36.7772821 97.4150713,37.0450769 97.1143826,37.0450769 L95.5218198,37.0450769 C95.1914246,37.0450769 94.9508737,36.7772821 94.9508737,36.4786154 L94.9508737,30.3753333 C94.9508737,28.4691795 94.0792389,27.4267179 92.3968317,27.4267179 C90.5934246,27.4267179 89.5718078,28.8267179 89.4218257,29.2136923 L89.4218257,36.4786154 C89.4218257,36.7772821 89.1508437,37.0450769 88.8508796,37.0450769 L87.1677479,37.0450769 C86.8670593,37.0450769 86.5968018,36.7772821 86.5968018,36.4786154 L86.5968018,25.7000513 Z" id="Fill-19" fill="#646384"></path>
                <path d="M117.638011,29.7792923 C117.548167,28.3498564 116.346137,27.1293436 114.87385,27.1293436 C113.250856,27.1293436 111.988688,28.2902667 111.808275,29.7792923 L117.638011,29.7792923 Z M114.903556,24.8362154 C118.028544,24.8362154 120.432604,27.1587795 120.432604,30.3450359 C120.432604,30.553241 120.402898,30.9409333 120.372466,31.1491385 C120.34276,31.4470872 120.102209,31.6552923 119.831951,31.6552923 L111.658293,31.6552923 C111.748137,33.2634974 113.160287,34.8415487 115.113676,34.8415487 C116.195431,34.8415487 117.187341,34.3648308 117.788718,33.9778564 C118.14882,33.7696513 118.359664,33.6504718 118.59949,33.9477026 L119.441419,35.0791897 C119.651538,35.3182667 119.741383,35.5559077 119.381281,35.8538564 C118.509646,36.5983692 116.94679,37.3421641 114.933263,37.3421641 C111.297466,37.3421641 108.893407,34.5141641 108.893407,31.0895487 C108.893407,27.7245231 111.297466,24.8362154 114.903556,24.8362154 L114.903556,24.8362154 Z" id="Fill-21" fill="#646384"></path>
                <path d="M41.0710228,40.000441 C41.0710228,43.8357231 37.9047353,46.973159 34.0341844,46.973159 L11.501376,46.973159 C7.63082515,46.973159 4.46453772,43.8357231 4.46453772,40.000441 L4.46453772,20.7716205 C4.46453772,19.0320308 5.9005976,17.6090564 7.65618443,17.6090564 L37.879376,17.6090564 C39.6349629,17.6090564 41.0710228,19.0320308 41.0710228,20.7716205 L41.0710228,40.000441 Z M41.1659389,13.1175692 L26.7234659,13.1175692 L34.0935976,3.22351795 C34.6297653,2.50341538 34.4754359,1.48895385 33.7487114,0.957671795 C33.0219868,0.426389744 31.9981964,0.578594872 31.4620287,1.29869744 L22.6587353,13.1175692 L22.1718371,13.1175692 L16.4370168,7.43500513 C15.7986874,6.80177436 14.7633042,6.80177436 14.1242503,7.43500513 C13.485921,8.06751795 13.485921,9.09346667 14.1242503,9.72597949 L17.5470287,13.1175692 L4.36962156,13.1175692 C2.09742994,13.1175692 0.238956886,14.9591077 0.238956886,17.2105949 L0.238956886,40.9488513 C0.238956886,46.7326462 5.01447186,51.4646462 10.8514539,51.4646462 L16.6369928,51.4646462 L14.6922982,52.7311077 C13.9373162,53.2221846 13.727921,54.2273128 14.2235138,54.9746974 C14.7198311,55.7228 15.7327533,55.9310051 16.4884599,55.4399282 L22.5935257,51.4646462 L22.9398611,51.4646462 L29.081879,55.4743897 C29.3586575,55.6553128 29.6709389,55.7414667 29.9795976,55.7414667 C30.511418,55.7414667 31.0323701,55.485159 31.3468251,55.0120308 C31.8438671,54.2653641 31.6351964,53.2602359 30.8809389,52.7677231 L28.8848012,51.4646462 L34.6841066,51.4646462 C40.5210886,51.4646462 45.2966036,46.7326462 45.2966036,40.9488513 L45.2966036,17.2105949 C45.2966036,14.9591077 43.4381305,13.1175692 41.1659389,13.1175692 L41.1659389,13.1175692 Z" id="Fill-23" fill="#313048"></path>
            </g>
        </g>
    </g>
</svg>