<?xml version="1.0" encoding="UTF-8" standalone="no"?>
<svg width="104px" height="57px" viewBox="0 0 104 57" version="1.1" xmlns="http://www.w3.org/2000/svg" xmlns:xlink="http://www.w3.org/1999/xlink">
    <!-- Generator: Sketch 39.1 (31720) - http://www.bohemiancoding.com/sketch -->
    <title>logo 5</title>
    <desc>Created with Sketch.</desc>
    <defs>
        <polygon id="path-1" points="0 56.304878 103.625879 56.304878 103.625879 0.557487805 0 0.557487805"></polygon>
    </defs>
    <g id="Page-1" stroke="none" stroke-width="1" fill="none" fill-rule="evenodd">
        <g id="Desktop-HD" transform="translate(-815.000000, -667.000000)">
            <g id="logo-5" transform="translate(815.000000, 667.000000)">
                <path d="M29.3953557,22.4058659 L30.6677852,31.3472195 L28.1229262,31.3472195 L29.3953557,22.4058659 Z M27.5910604,34.6775488 L31.1773154,34.6775488 L31.980698,39.8902683 L35.5927785,39.8902683 L31.7761879,17.2112195 L27.0508188,17.2112195 L23.1797852,39.8902683 L26.7562685,39.8902683 L27.5910604,34.6775488 Z" id="Fill-1" fill="#313048"></path>
                <g id="Group-10" transform="translate(0.000000, 0.137565)">
                    <path d="M43.4074362,40.0422915 C44.8976376,40.0422915 46.176349,39.5174744 47.2421745,38.4678402 C48.308,37.417511 48.8419597,36.1391817 48.8419597,34.630072 L48.8419597,31.4630963 L45.2794362,31.4630963 L45.2794362,34.5939256 C45.2794362,35.1368159 45.085396,35.599072 44.6980134,35.9786085 C44.3099329,36.3588402 43.8436779,36.5493037 43.2985503,36.5493037 C42.7534228,36.5493037 42.2899597,36.3588402 41.9081611,35.9786085 C41.5263624,35.599072 41.3358121,35.1368159 41.3358121,34.5939256 L41.3358121,22.1776573 C41.3358121,21.6347671 41.5263624,21.1704256 41.9081611,20.7839378 C42.2899597,20.3981451 42.7534228,20.2049012 43.2985503,20.2049012 C43.8436779,20.2049012 44.3099329,20.3981451 44.6980134,20.7839378 C45.085396,21.1704256 45.2794362,21.6347671 45.2794362,22.1776573 L45.2794362,24.8385841 L48.8419597,24.8385841 L48.8419597,22.24995 C48.8419597,20.7540476 48.3142819,19.4750232 47.2603221,18.4128768 C46.2063624,17.3514256 44.9220671,16.8203524 43.4074362,16.8203524 C41.9046711,16.8203524 40.6210738,17.34795 39.5545503,18.4038402 C38.4880268,19.4597305 37.9554631,20.7422305 37.9554631,22.24995 L37.9554631,34.630072 C37.9554631,36.1266695 38.4852349,37.4029134 39.5454765,38.4588037 C40.6057181,39.5146939 41.8928054,40.0422915 43.4074362,40.0422915 L43.4074362,40.0422915 Z" id="Fill-2" fill="#313048"></path>
                    <polygon id="Fill-4" fill="#313048" points="55.0931973 25.5261988 58.4191034 39.7525646 61.1817342 39.7525646 64.1621369 25.4900524 64.1621369 39.7525646 67.5969289 39.7525646 67.5969289 17.0554427 62.8617879 17.0554427 59.788553 33.3602232 56.5875866 17.0554427 51.6584054 17.0554427 51.6584054 39.7525646 55.0931973 39.7525646"></polygon>
                    <polygon id="Fill-6" fill="#313048" points="80.4463732 36.3137268 74.1030711 36.3137268 74.1030711 30.1236659 78.737702 30.1236659 78.737702 26.6842024 74.1030711 26.6842024 74.1030711 20.4941415 80.4463732 20.4941415 80.4463732 17.0553732 70.6682792 17.0553732 70.6682792 39.7524951 80.4463732 39.7524951"></polygon>
                    <mask id="mask-2" fill="white">
                        <use xlink:href="#path-1"></use>
                    </mask>
                    <g id="Clip-9"></g>
                    <path d="M3.51855034,52.8007683 L100.107329,52.8007683 L100.107329,4.06159756 L3.51855034,4.06159756 L3.51855034,52.8007683 Z M0,56.304878 L103.625879,56.304878 L103.625879,0.557487805 L0,0.557487805 L0,56.304878 Z" id="Fill-8" fill="#313048" mask="url(#mask-2)"></path>
                </g>
            </g>
        </g>
    </g>
</svg>